<?xml version="1.0" encoding="UTF-8" standalone="no"?>
<!-- Created with Inkscape (http://www.inkscape.org/) -->

<svg
   width="297mm"
   height="210mm"
   viewBox="0 0 297 210"
   version="1.1"
   id="svg1"
   inkscape:version="1.4.2 (f4327f4, 2025-05-13)"
   sodipodi:docname="worrall.svg"
   xmlns:inkscape="http://www.inkscape.org/namespaces/inkscape"
   xmlns:sodipodi="http://sodipodi.sourceforge.net/DTD/sodipodi-0.dtd"
   xmlns="http://www.w3.org/2000/svg"
   xmlns:svg="http://www.w3.org/2000/svg">
  <sodipodi:namedview
     id="namedview1"
     pagecolor="#ffffff"
     bordercolor="#000000"
     borderopacity="0.25"
     inkscape:showpageshadow="2"
     inkscape:pageopacity="0.0"
     inkscape:pagecheckerboard="0"
     inkscape:deskcolor="#d1d1d1"
     inkscape:document-units="mm"
     inkscape:zoom="0.48693448"
     inkscape:cx="400.46455"
     inkscape:cy="557.56988"
     inkscape:window-width="1920"
     inkscape:window-height="991"
     inkscape:window-x="-9"
     inkscape:window-y="-9"
     inkscape:window-maximized="1"
     inkscape:current-layer="layer1" />
  <defs
     id="defs1" />
  <g
     inkscape:label="Layer 1"
     inkscape:groupmode="layer"
     id="layer1">
    <g
       id="g1"
       transform="matrix(1.4534718,0,0,1.4534718,-71.4708,-37.544971)">
      <path
         style="font-size:132.388px;font-family:'relationship of mélodrame';-inkscape-font-specification:'relationship of mélodrame';fill:#1a1a1a;stroke-width:0.540453"
         d="m 238.06883,76.396187 c 0.20753,-0.968497 0.38048,-1.867815 0.51884,-2.697955 0.13835,-0.899317 0.10376,-1.694868 -0.10377,-2.386651 -0.13836,-0.691783 -0.48425,-1.279798 -1.03768,-1.764047 -0.48425,-0.484248 -1.24521,-0.760961 -2.28288,-0.83014 l 0.20753,-0.622603 c 0.89932,0 1.90241,-0.138357 3.00926,-0.41507 1.10685,-0.276714 2.21371,-0.657195 3.32056,-1.141443 1.10686,-0.484248 2.07535,-1.037674 2.90548,-1.660279 0.89933,-0.691783 1.55652,-1.418155 1.97159,-2.179116 h 0.6226 l -0.93391,3.839395 c -2.14452,9.477427 -4.28905,18.885678 -6.43357,28.224748 -2.14453,9.269894 -4.32365,18.643554 -6.53736,28.120974 -0.20752,0.83015 -0.38047,1.69488 -0.51883,2.5942 -0.0692,0.83013 -0.0692,1.5565 0,2.17911 0.0692,0.55342 0.24212,0.9685 0.51883,1.24521 0.3459,0.20753 0.86473,0.10377 1.55652,-0.3113 1.38356,-0.9685 2.55854,-2.42514 3.8394,-4.1507 2.60651,-3.51145 3.11302,-2.5596 2.28288,-1.03767 -0.83014,1.52191 -1.72946,2.94007 -2.69796,4.25446 -0.89932,1.3144 -1.9024,2.45584 -3.00925,3.42433 -1.03768,0.9685 -2.07535,1.66028 -3.11302,2.07535 -0.96851,0.34589 -1.86782,0.38048 -2.69796,0.10377 -0.83014,-0.27672 -1.52193,-0.83014 -2.07535,-1.66028 -0.76095,-1.38357 -1.00307,-2.8709 -0.72637,-4.462 0.20753,-1.66028 0.48425,-3.2168 0.83013,-4.66954 z"
         id="path16"
         sodipodi:nodetypes="ccccccssccccccccccsscccscccc" />
      <path
         style="font-size:132.388px;font-family:'relationship of mélodrame';-inkscape-font-specification:'relationship of mélodrame';fill:#1a1a1a;stroke-width:0.540453"
         d="m 224.80718,76.396187 c 0.20753,-0.968497 0.38049,-1.867815 0.51883,-2.697955 0.13836,-0.899317 0.10378,-1.694868 -0.10376,-2.386651 -0.13836,-0.691783 -0.48424,-1.279798 -1.03768,-1.764047 -0.48424,-0.484248 -1.2452,-0.760961 -2.28288,-0.83014 l 0.20753,-0.622603 c 0.89932,0 1.90241,-0.138357 3.00926,-0.41507 1.10686,-0.276714 2.21371,-0.657195 3.32057,-1.141443 1.10684,-0.484248 2.07534,-1.037674 2.90548,-1.660279 0.89931,-0.691783 1.55651,-1.418155 1.97158,-2.179116 h 0.6226 l -0.9339,3.839395 c -2.14453,9.477427 -4.28905,18.885678 -6.43358,28.224748 -2.14454,9.269894 -4.32365,18.643554 -6.53735,28.120974 -0.20754,0.83015 -0.38049,1.69488 -0.51884,2.5942 -0.0692,0.83013 -0.0692,1.5565 0,2.17911 0.0692,0.55342 0.24212,0.9685 0.51884,1.24521 0.34589,0.20753 0.86472,0.10377 1.55651,-0.3113 1.38356,-0.9685 2.66337,-2.35206 3.8394,-4.1507 1.17603,-1.79864 2.17911,-3.66645 3.00926,-5.60344 h 1.45274 c -0.62261,1.52192 -1.34898,3.04384 -2.17913,4.56577 -0.83013,1.52191 -1.72945,2.94007 -2.69795,4.25446 -0.89931,1.3144 -1.90239,2.45584 -3.00925,3.42433 -1.03768,0.9685 -2.07535,1.66028 -3.11303,2.07535 -0.96849,0.34589 -1.86781,0.38048 -2.69795,0.10377 -0.83015,-0.27672 -1.52192,-0.83014 -2.07535,-1.66028 -0.76096,-1.38357 -1.00309,-2.8709 -0.72637,-4.462 0.20754,-1.66028 0.48425,-3.2168 0.83014,-4.66954 z"
         id="path15" />
      <path
         id="path13"
         style="font-size:132.388px;font-family:'relationship of mélodrame';-inkscape-font-specification:'relationship of mélodrame';fill:#1a1a1a;stroke-width:0.540453"
         d="m 213.57189,87.8701 c -2.11054,-0.340071 -3.25682,0.198549 -3.73535,0.453906 -1.72381,1.385886 -1.59024,3.254787 -2.85947,4.100925 -0.96654,0.252271 -1.424,-0.98248 -3.0151,-2.22769 -1.5911,-1.314387 -3.83935,-1.660333 -6.74484,-1.037728 -2.62877,0.553426 -5.05001,1.902293 -7.2637,4.04682 -2.14454,2.144524 -4.04683,4.669688 -5.70711,7.575177 -1.66029,2.9055 -3.00915,6.05313 -4.04683,9.44286 -1.03767,3.32055 -1.69504,6.5027 -1.97176,9.54655 -0.34589,3.66645 0.17303,6.81407 1.5566,9.44285 1.38356,2.62877 3.32038,4.01257 5.8108,4.15093 0.96849,0.0692 2.04085,-0.10381 3.21688,-0.51887 1.17603,-0.41507 2.38685,-1.176 3.63205,-2.28284 2.14453,-2.00618 4.01231,-4.32386 5.60342,-6.95263 1.66028,-2.62878 3.1476,-5.292 4.46199,-7.98996 l -1.55659,6.84853 c -0.3459,1.45274 -0.65733,3.0091 -0.93405,4.66938 -0.20753,1.5911 0.0693,3.07843 0.83035,4.462 0.55343,0.83014 1.24492,1.38357 2.07506,1.66028 0.83014,0.27671 1.72951,0.24221 2.69801,-0.10369 1.03767,-0.41507 2.07552,-1.10697 3.11319,-2.07546 1.10685,-0.96849 2.10977,-2.10987 3.0091,-3.42426 0.96849,-1.31439 1.86787,-2.73228 2.698,-4.25421 0.83014,-1.52193 1.55655,-3.04416 2.17916,-4.56609 h -1.4529 c -0.83013,1.937 -1.83306,3.80518 -3.0091,5.60382 -1.17603,1.79864 -2.45587,3.18202 -3.83943,4.15052 -0.69179,0.41507 -1.21071,0.519 -1.5566,0.31147 -0.27671,-0.27671 -0.44965,-0.69209 -0.51886,-1.24551 -0.0692,-0.62261 -0.0692,-1.34901 0,-2.17915 0.13836,-0.89931 0.31133,-1.76378 0.51886,-2.59392 l 7.67887,-32.998349 0.49763,-1.776094 z m -13.13302,4.052235 c 0.99984,0 1.93212,0.324376 2.79685,0.972923 1.45274,1.037674 2.2827,2.525006 2.49022,4.461996 0.20754,1.867811 0.0695,3.874056 -0.41476,6.018586 -0.41507,2.14453 -1.03794,4.2198 -1.86808,6.22597 -0.83014,2.00617 -1.55654,3.59704 -2.17915,4.77307 -0.76096,1.45274 -1.62542,2.90557 -2.59391,4.35831 -0.89932,1.45274 -1.83321,2.83653 -2.80172,4.15092 -0.89932,1.31439 -1.83321,2.5248 -2.80171,3.63165 -0.96849,1.03767 -1.86787,1.86802 -2.69801,2.49062 -1.31439,0.96851 -2.55971,1.34895 -3.73575,1.14142 -1.10684,-0.27671 -1.90228,-1.34906 -2.38653,-3.21687 -0.34587,-1.45274 -0.44984,-3.2515 -0.31148,-5.39603 0.20754,-2.14453 0.62291,-4.4273 1.24552,-6.84853 0.6226,-2.42124 1.41805,-4.87698 2.38654,-7.3674 0.9685,-2.49042 2.04085,-4.77318 3.21687,-6.84853 1.17604,-2.075347 2.42096,-3.839593 3.73535,-5.29234 1.38356,-1.521922 2.73284,-2.490329 4.04722,-2.905399 0.64854,-0.233476 1.27262,-0.350366 1.87253,-0.350366 z"
         sodipodi:nodetypes="ccccccsccscsccccccscccsccsccccccccscccsccccccccsssccs" />
      <path
         style="font-size:132.388px;font-family:'relationship of mélodrame';-inkscape-font-specification:'relationship of mélodrame';fill:#1a1a1a;stroke-width:0.540453"
         d="m 165.32009,99.536325 c 0.20754,-0.830136 0.3459,-1.660273 0.41507,-2.490418 0.13836,-0.899315 0.17295,-1.660273 0.10376,-2.282881 -0.0692,-0.622604 -0.27671,-1.037674 -0.62259,-1.245209 -2.16655,-1.444149 -0.39548,-1.789793 1.34898,-4.254466 0.55665,-0.786476 1.76403,-0.380481 2.59418,-0.103767 0.83013,0.207535 1.52192,0.760961 2.07535,1.660278 0.83013,1.383566 1.10685,2.905488 0.83013,4.565765 -0.2767,1.591101 -0.58801,3.078442 -0.9339,4.462005 -0.0692,0.345888 -0.27672,1.314388 -0.6226,2.905488 -0.3459,1.5911 -0.79555,3.59728 -1.34898,6.01852 1.45274,-2.9055 3.07843,-5.81098 4.87707,-8.71648 1.86782,-2.905483 3.73563,-5.43049 5.60345,-7.575018 1.17602,-1.383566 2.35205,-2.317473 3.52808,-2.801721 1.24522,-0.553427 2.35206,-0.760962 3.32057,-0.622605 1.38356,0.138356 2.49041,0.726373 3.32055,1.764046 0.89932,1.037675 6.30531,-1.742003 4.83058,-0.603124 -1.86999,0.152543 -4.10421,5.860674 -4.51928,6.621639 -0.34588,0.760958 -0.83013,1.383564 -1.45274,1.867812 -0.62261,0.484247 -1.31439,0.830144 -2.07535,1.037675 -0.76096,0.20753 0.80286,-1.298246 0.24943,-1.505776 -0.55342,-0.20753 -2.85646,3.074242 -1.09427,0.04241 2.96509,-4.759338 -1.34244,-5.882989 -3.77197,-4.941881 -1.19538,0.650974 -2.08619,1.550349 -2.85444,2.66963 -0.41507,0.553427 -0.79556,1.037675 -1.14144,1.452743 -2.28289,3.32056 -4.18529,6.46818 -5.70722,9.44284 -1.45274,2.90549 -2.69795,5.77639 -3.73563,8.6127 -1.03767,2.76714 -1.93698,5.56886 -2.69796,8.40516 -0.69178,2.76714 -1.45274,5.7418 -2.28287,8.924 h -5.91475 z"
         id="path12"
         sodipodi:nodetypes="ccccsccccsccccccccssscscccccccc" />
      <path
         style="font-size:132.388px;font-family:'relationship of mélodrame';-inkscape-font-specification:'relationship of mélodrame';fill:#1a1a1a;stroke-width:0.540453"
         d="m 145.2396,99.536325 c 0.20753,-0.830136 0.34589,-1.660273 0.41506,-2.490418 0.13837,-0.899315 0.17295,-1.660273 0.10378,-2.282881 -0.0692,-0.622604 -0.27672,-1.037674 -0.62261,-1.245209 -0.27671,-0.207535 -0.72637,-0.103768 -1.34898,0.311302 -0.96849,0.622605 -1.86781,1.487329 -2.69795,2.594183 -0.83015,1.037674 -1.62569,2.179117 -2.38665,3.42433 l -1.5299,-4.791339 c 1.92399,3.381605 2.63675,0.190983 4.22785,-1.746011 1.5911,-2.006171 3.28597,-3.355148 5.08461,-4.046931 0.89932,-0.345892 1.76405,-0.380481 2.59419,-0.103767 0.83014,0.207535 1.52192,0.760961 2.07534,1.660278 0.83015,1.383566 1.10685,2.905488 0.83015,4.565765 -0.27671,1.591101 -0.58803,3.078442 -0.93391,4.462005 -0.0692,0.345888 -0.27672,1.314388 -0.62261,2.905488 -0.34589,1.5911 -0.79554,3.59728 -1.34897,6.01852 1.45274,-2.9055 3.07843,-5.81098 4.87706,-8.71648 1.86782,-2.905483 3.73563,-5.43049 5.60344,-7.575018 1.17604,-1.383566 2.35207,-2.317473 3.52811,-2.801721 1.18277,-0.548967 3.02408,-0.942057 4.81118,-0.862172 1.67638,0.431161 0.99979,0.96594 1.82993,2.003613 0.89931,1.037675 1.2798,2.248295 1.14144,3.631862 -0.13835,0.830142 -0.41508,1.625688 -0.83014,2.386653 -0.34589,0.760958 -0.83014,1.383564 -1.45275,1.867812 -0.6226,0.484247 -3.55347,2.185231 -3.40627,1.410331 0.65887,-3.46857 0.5387,-6.130396 -3.13107,-6.183633 -0.4842,-0.007 -1.00308,0.207535 -1.55652,0.622605 -0.55342,0.345891 -1.03768,0.830135 -1.45275,1.452742 -0.41507,0.553426 -0.79554,1.037673 -1.14143,1.452742 -2.28289,3.320564 -4.18529,6.468174 -5.70721,9.442844 -1.45275,2.90549 -2.69795,5.77639 -3.73563,8.6127 -1.03767,2.76714 -1.93699,5.56886 -2.69795,8.40516 -0.69179,2.76714 -1.45274,5.7418 -2.28289,8.924 h -5.91475 z"
         id="path11"
         sodipodi:nodetypes="cccccccccsccccsccccccccsssccccccccc" />
      <path
         id="path9"
         style="font-size:132.388px;font-family:'relationship of mélodrame';-inkscape-font-specification:'relationship of mélodrame';fill:#1a1a1a;stroke-width:0.540453"
         d="m 63.78434,88.952128 c -2.00617,0 -3.77042,1.106867 -5.29234,3.320573 -0.69178,0.968496 -1.27973,2.109876 -1.76398,3.424264 -0.48425,1.314384 -0.89922,2.697768 -1.24511,4.150511 h 1.55659 c 0.34589,-1.245213 0.79538,-2.386586 1.34881,-3.424261 0.55342,-1.106854 1.2108,-1.971315 1.97176,-2.593919 0.55343,-0.41507 1.00292,-0.519017 1.34881,-0.311482 0.41507,0.207535 0.7265,0.622509 0.93404,1.245114 0.27671,0.622605 0.44968,1.383531 0.51886,2.282847 0.13836,0.830144 0.2419,1.660492 0.31108,2.490629 0.34589,5.603446 0.65732,11.172296 0.93404,16.706556 0.34589,5.46508 0.69183,10.99942 1.03772,16.60287 h 1.97137 l 15.87661,-32.58318 1.86767,32.58318 h 2.28284 c 2.00617,-2.62878 3.9434,-5.29241 5.81121,-7.99036 1.86781,-2.76713 3.70109,-5.56882 5.49972,-8.40513 0.62261,-0.9685 1.38353,-2.17891 2.28285,-3.63165 3.22174,-5.46832 6.64899,-9.52587 10.72117,-12.997136 -1.91512,3.092956 -3.34411,6.871856 -4.28741,11.336856 -1.10686,4.91166 -1.24531,9.0277 -0.41517,12.34826 0.83013,3.32056 2.179,5.8108 4.04681,7.47108 1.937,1.5911 4.21975,2.38695 6.84854,2.38695 2.69794,0.0692 5.36157,-0.72667 7.99035,-2.38695 2.62877,-1.66028 5.04999,-4.15052 7.26369,-7.47108 2.28289,-3.32056 3.94319,-7.4366 4.98087,-12.34826 1.03767,-4.91166 1.14121,-8.99319 0.31106,-12.244566 -0.76096,-3.320562 -2.10982,-5.811209 -4.04681,-7.471489 -1.86781,-1.660279 -4.15058,-2.490227 -6.84853,-2.490227 -2.62878,0 -7.5468,1.309118 -10.17558,2.969397 -0.13672,0.08635 -0.26681,0.173679 -0.39088,0.262066 -9.26753,4.900606 -15.97973,18.149139 -21.49784,26.342209 -1.5911,2.42124 -3.21688,4.84246 -4.87716,7.26371 -0.0692,-1.24521 -0.17313,-3.04398 -0.31149,-5.39604 -0.13835,-2.42124 -0.31092,-4.946 -0.51846,-7.57478 -0.13835,-2.62878 -0.27681,-5.11943 -0.41517,-7.47149 -0.0692,-2.42124 -0.13861,-4.25452 -0.20779,-5.499724 L 88.58454,89.263204 H 86.71687 L 70.73656,122.36524 69.49145,99.847476 C 69.42225,98.948152 69.31832,97.806779 69.17996,96.423215 69.04161,94.970472 68.69607,93.58709 68.14264,92.272701 67.58921,91.09667 66.93183,90.266318 66.17087,89.782069 65.40991,89.297821 64.61448,89.021308 63.78434,88.952128 Z m 63.40195,1.867671 c 1.66027,-0.06918 3.04367,0.622714 4.15051,2.075459 1.10685,1.452744 1.79875,3.700992 2.07546,6.744836 0.27671,3.043846 -0.0692,6.883366 -1.03773,11.518316 -0.96849,4.49659 -2.24834,8.26668 -3.83944,11.31052 -1.52192,2.97467 -3.18222,5.25743 -4.98086,6.84854 -1.72945,1.52191 -3.42427,2.31773 -5.08454,2.38694 -1.66028,0 -3.04366,-0.72641 -4.15052,-2.17916 -1.03768,-1.52192 -1.72957,-3.80508 -2.07546,-6.84893 -0.27671,-3.04385 0.0692,-6.88296 1.03773,-11.51791 0.89932,-4.35823 2.14464,-8.02477 3.73574,-10.99945 1.5911,-3.043841 3.25141,-5.326607 4.98087,-6.848529 1.79863,-1.591101 3.52795,-2.421453 5.18824,-2.490632 z"
         sodipodi:nodetypes="ccscccccccccccccccccccsccscsccsscccccccccccccscssscccccccccs" />
    </g>
  </g>
</svg>
